<svg width="2964" height="351" viewBox="0 0 2964 351" fill="none" xmlns="http://www.w3.org/2000/svg">
<path d="M1.19209e-06 246.5C1.19209e-06 276 24 300 53.5 300V-2.38419e-05H1.19209e-06V246.5ZM267.5 246.5C267.5 276 244 300 214.5 300H214V-2.38419e-05H267.5V246.5ZM53.5 350V300H214V350H53.5ZM327.637 350V0.999993H381.137V350H327.637ZM494.418 -2.38419e-05H654.918C684.418 -2.38419e-05 708.418 24 708.418 53.5V171C708.418 201 684.418 224.5 654.918 224.5H494.418V174.5H654.918V50H494.418V174.5C464.918 174.5 440.918 150.5 440.918 121V53.5C440.918 24 464.918 -2.38419e-05 494.418 -2.38419e-05ZM440.918 350V278C440.918 248.5 464.918 224.5 494.418 224.5V350H440.918ZM822.055 50.5V150H982.555V200H822.055V300H982.555V200C1012.05 200 1036.05 224 1036.05 253.5V297C1036.05 326.5 1012.05 350.5 982.555 350.5V350H821.555C792.055 350 768.555 326 768.555 296.5V50H822.055V-2.38419e-05H982.555C1012.05 -2.38419e-05 1036.05 24 1036.05 53.5V150H982.555V50.5H822.055ZM1310.19 175V50H1363.69V350H1310.19V225H1149.69V350H1096.19V53.5C1096.19 24 1120.19 -2.38419e-05 1149.69 -2.38419e-05H1310.19V50H1149.69V175H1310.19ZM1527.83 -2.38419e-05H1674.83V50H1477.33C1477.33 22.5 1499.83 -2.38419e-05 1527.83 -2.38419e-05ZM1423.83 296V50H1477.33V300H1674.83V350H1477.33V349.5C1447.83 349.5 1423.83 325.5 1423.83 296ZM1948.86 150V-2.38419e-05H2002.36V350H1948.86V200H1788.36V350H1734.86V-2.38419e-05H1788.36V150H1948.86ZM2166.5 -2.38419e-05H2313.5V50H2116C2116 22.5 2138.5 -2.38419e-05 2166.5 -2.38419e-05ZM2062.5 296V50H2116V300H2313.5V350H2116V349.5C2086.5 349.5 2062.5 325.5 2062.5 296ZM2587.54 150V-2.38419e-05H2641.04V350H2587.54V200H2427.04V350H2373.54V-2.38419e-05H2427.04V150H2587.54ZM2910.17 -2.38419e-05H2963.67V300C2963.67 327.5 2941.17 350 2913.67 350H2751.67C2723.67 350 2701.17 327.5 2701.17 300V-2.38419e-05H2754.67V300H2910.17V-2.38419e-05Z" fill="url(#paint0_linear_26_78)"/>
<defs>
<linearGradient id="paint0_linear_26_78" x1="-239.744" y1="-150" x2="3056.78" y2="531.142" gradientUnits="userSpaceOnUse">
<stop stop-color="#F40909"/>
<stop offset="1" stop-color="#7F03E0"/>
</linearGradient>
</defs>
</svg>
