<?xml version="1.0" encoding="UTF-8"?>
<svg version="1.1" xmlns="http://www.w3.org/2000/svg" width="260" height="280">
<path d="M0 0 C1.26496307 -0.01591187 2.52992615 -0.03182373 3.83322144 -0.04821777 C5.2157994 -0.04948514 6.59837874 -0.04966182 7.98095703 -0.04882812 C9.39959007 -0.05592958 10.81822022 -0.06362855 12.23684692 -0.07189941 C15.21103902 -0.08534971 18.18496568 -0.08691116 21.15917969 -0.08105469 C24.96491413 -0.07516409 28.76937038 -0.10571842 32.57485771 -0.14617157 C35.50549137 -0.17206522 38.43581817 -0.17492447 41.36655045 -0.17127991 C42.76915825 -0.17297029 44.17178034 -0.18260518 45.57427597 -0.20042419 C47.53897584 -0.22263518 49.50397722 -0.20969424 51.46875 -0.1953125 C53.14395218 -0.19839417 53.14395218 -0.19839417 54.85299683 -0.20153809 C58.77977698 0.60899691 60.3065293 2.42285698 62.86376953 5.41992188 C60.76846189 8.68446292 58.67121656 11.94772751 56.57080078 15.20898438 C54.72658249 18.07356657 52.89219151 20.94416908 51.06298828 23.81835938 C49.20104921 26.74389484 47.30516644 29.64283452 45.38330078 32.52929688 C43.85564035 34.83163185 42.56159603 37.01970202 41.31298828 39.49804688 C39.67968461 42.42419092 38.80634978 43.76472049 35.86376953 45.41992188 C29.25081325 46.45499329 22.50498677 45.96983158 15.86376953 45.41992188 C15.63947266 46.09410156 15.41517578 46.76828125 15.18408203 47.46289062 C13.48786784 51.2618082 11.19541796 54.39151764 8.73876953 57.73242188 C8.27083984 58.37759766 7.80291016 59.02277344 7.32080078 59.6875 C6.17317663 61.26841082 5.01911477 62.84464488 3.86376953 64.41992188 C0.89376953 63.92492187 0.89376953 63.92492187 -2.13623047 63.41992188 C-3.1533499 59.7143084 -3.4196368 57.995951 -1.69482422 54.49023438 C-0.99486328 53.51828125 -0.29490234 52.54632813 0.42626953 51.54492188 C1.52841797 49.99224609 1.52841797 49.99224609 2.65283203 48.40820312 C3.38244141 47.42207031 4.11205078 46.4359375 4.86376953 45.41992188 C5.46962891 44.58847656 6.07548828 43.75703125 6.69970703 42.90039062 C10.42195919 37.86173222 10.42195919 37.86173222 11.86376953 36.41992188 C13.35248813 36.33322755 14.84521453 36.31288694 16.33642578 36.32226562 C17.23554688 36.32548828 18.13466797 36.32871094 19.06103516 36.33203125 C20.47932617 36.34459961 20.47932617 36.34459961 21.92626953 36.35742188 C23.35036133 36.36418945 23.35036133 36.36418945 24.80322266 36.37109375 C27.15680018 36.38292077 29.5102543 36.39940162 31.86376953 36.41992188 C32.12657715 35.69973877 32.38938477 34.97955566 32.66015625 34.23754883 C33.89744718 31.34108338 35.36125229 28.94637924 37.12158203 26.33789062 C37.74677734 25.40654297 38.37197266 24.47519531 39.01611328 23.515625 C39.66708984 22.55591797 40.31806641 21.59621094 40.98876953 20.60742188 C41.64748047 19.62837891 42.30619141 18.64933594 42.98486328 17.640625 C44.60702743 15.23088841 46.23343799 12.82413693 47.86376953 10.41992188 C41.03288575 10.14001397 34.20348779 9.94799215 27.36816406 9.81567383 C25.04566197 9.76049944 22.72353955 9.68553557 20.40234375 9.59008789 C7.39761663 8.50194466 7.39761663 8.50194466 -4.35424805 12.71972656 C-6.43159498 15.56117443 -7.77720496 18.18418536 -9.13623047 21.41992188 C-10.33534407 23.31428252 -11.56085357 25.19245929 -12.82373047 27.04492188 C-13.34322266 27.8621875 -13.86271484 28.67945312 -14.39794922 29.52148438 C-16.56953544 31.89314933 -17.96259287 32.23504978 -21.13623047 32.41992188 C-23.58584327 30.68148698 -24.95953961 28.72060631 -26.47216797 26.14648438 C-27.91256409 23.73058189 -29.26627263 21.52417703 -31.13623047 19.41992188 C-34.80626337 18.75161416 -34.80626337 18.75161416 -38.13623047 19.41992188 C-38.79623047 19.08992188 -39.45623047 18.75992188 -40.13623047 18.41992188 C-39.73831299 19.01417969 -39.34039551 19.6084375 -38.93041992 20.22070312 C-37.10193585 22.95293902 -35.27532239 25.68642068 -33.44873047 28.41992188 C-32.82289062 29.35449219 -32.19705078 30.2890625 -31.55224609 31.25195312 C-28.35832834 36.03446871 -25.21441479 40.82523392 -22.26586914 45.76367188 C-21.05467799 47.53949223 -19.69821804 48.94902455 -18.13623047 50.41992188 C-17.87269775 49.69756348 -17.60916504 48.97520508 -17.33764648 48.23095703 C-16.11212014 45.3635093 -14.66985825 43.01606338 -12.91357422 40.44335938 C-12.29289062 39.52554688 -11.67220703 38.60773438 -11.03271484 37.66210938 C-10.38625 36.7159375 -9.73978516 35.76976562 -9.07373047 34.79492188 C-7.78802332 32.90904816 -6.50532645 31.02111762 -5.22607422 29.13085938 C-4.65751709 28.2986084 -4.08895996 27.46635742 -3.50317383 26.60888672 C-1.99308257 24.38092833 -1.99308257 24.38092833 -1.13623047 21.41992188 C1.89530517 18.4991761 4.03260022 18.04982542 8.18017578 18.09179688 C9.19144531 18.09695312 10.20271484 18.10210937 11.24462891 18.10742188 C12.81954102 18.13835937 12.81954102 18.13835937 14.42626953 18.16992188 C15.48007813 18.17507812 16.53388672 18.18023437 17.61962891 18.18554688 C25.39893864 18.26497824 25.39893864 18.26497824 28.86376953 19.41992188 C29.96035889 22.70968995 29.66330091 24.13295954 28.86376953 27.41992188 C25.98111804 28.38080571 24.18714682 28.53663128 21.19580078 28.51757812 C20.303125 28.51435547 19.41044922 28.51113281 18.49072266 28.5078125 C17.56195313 28.49943359 16.63318359 28.49105469 15.67626953 28.48242188 C14.73589844 28.47791016 13.79552734 28.47339844 12.82666016 28.46875 C10.50563241 28.45696813 8.18473309 28.44051746 5.86376953 28.41992188 C5.59137451 29.15186768 5.31897949 29.88381348 5.03833008 30.63793945 C3.91624585 33.29563013 2.64765416 35.52237888 1.07080078 37.93164062 C0.52617188 38.76791992 -0.01845703 39.60419922 -0.57958984 40.46582031 C-1.15515625 41.33754883 -1.73072266 42.20927734 -2.32373047 43.10742188 C-2.91089844 43.99848633 -3.49806641 44.88955078 -4.10302734 45.80761719 C-5.26091835 47.56112322 -6.4208476 49.31328537 -7.58300781 51.06396484 C-8.86924083 53.01494702 -10.12985942 54.97751003 -11.37451172 56.95507812 C-11.95587891 57.85097656 -12.53724609 58.746875 -13.13623047 59.66992188 C-13.61060547 60.41757813 -14.08498047 61.16523438 -14.57373047 61.93554688 C-16.13623047 63.41992188 -16.13623047 63.41992188 -18.44873047 64.09179688 C-26.07186312 62.18601371 -31.44534075 50.25037099 -35.51123047 44.10742188 C-36.25440874 42.99979106 -36.9978962 41.89236763 -37.74169922 40.78515625 C-38.78390625 39.21797852 -38.78390625 39.21797852 -39.84716797 37.61914062 C-40.47929199 36.66869873 -41.11141602 35.71825684 -41.76269531 34.73901367 C-43.13623047 32.41992188 -43.13623047 32.41992188 -43.13623047 30.41992188 C-43.79623047 30.41992188 -44.45623047 30.41992188 -45.13623047 30.41992188 C-45.45076172 29.83984375 -45.76529297 29.25976562 -46.08935547 28.66210938 C-46.51732422 27.8809375 -46.94529297 27.09976563 -47.38623047 26.29492188 C-47.83611328 25.4725 -48.28599609 24.65007812 -48.74951172 23.80273438 C-49.92055663 21.79051636 -51.16109443 20.01165214 -52.57373047 18.16992188 C-54.13623047 15.41992188 -54.13623047 15.41992188 -53.44873047 12.60742188 C-52.13623047 10.41992188 -52.13623047 10.41992188 -51.13623047 9.41992188 C-49.20955539 9.3324398 -47.27971186 9.31294853 -45.35107422 9.32226562 C-43.59633789 9.32709961 -43.59633789 9.32709961 -41.80615234 9.33203125 C-39.95860352 9.34459961 -39.95860352 9.34459961 -38.07373047 9.35742188 C-36.22038086 9.36418945 -36.22038086 9.36418945 -34.32958984 9.37109375 C-31.2650893 9.3829258 -28.20068325 9.39941014 -25.13623047 9.41992188 C-25.13623047 10.40992187 -25.13623047 11.39992188 -25.13623047 12.41992188 C-24.47623047 12.41992188 -23.81623047 12.41992188 -23.13623047 12.41992188 C-22.08730808 14.0562408 -21.08716343 15.7247805 -20.13623047 17.41992188 C-19.80623047 17.74992187 -19.47623047 18.07992187 -19.13623047 18.41992188 C-16.33148842 17.01755085 -16.25541666 15.30254905 -15.13623047 12.41992188 C-14.20080671 10.85132828 -13.22078391 9.30849719 -12.19873047 7.79492188 C-11.69470703 7.03953125 -11.19068359 6.28414063 -10.67138672 5.50585938 C-7.33676338 0.97484445 -5.8117614 0.04387542 0 0 Z " fill="#E2E2E2" transform="translate(126.13623046875,97.580078125)"/>
<path d="M0 0 C1.51400391 0.01740234 1.51400391 0.01740234 3.05859375 0.03515625 C4.07050781 0.04417969 5.08242187 0.05320312 6.125 0.0625 C7.29869141 0.07990234 7.29869141 0.07990234 8.49609375 0.09765625 C8.49609375 0.42765625 8.49609375 0.75765625 8.49609375 1.09765625 C1.74609375 2.22265625 1.74609375 2.22265625 -0.50390625 1.09765625 C-0.10598877 1.69191406 0.29192871 2.28617187 0.7019043 2.8984375 C2.53038837 5.6306734 4.35700183 8.36415506 6.18359375 11.09765625 C6.80943359 12.03222656 7.43527344 12.96679688 8.08007812 13.9296875 C11.27399588 18.71220309 14.41790943 23.50296829 17.36645508 28.44140625 C18.57764623 30.2172266 19.93410618 31.62675893 21.49609375 33.09765625 C21.75962646 32.37529785 22.02315918 31.65293945 22.29467773 30.90869141 C23.52020408 28.04124367 24.96246597 25.69379775 26.71875 23.12109375 C27.64977539 21.744375 27.64977539 21.744375 28.59960938 20.33984375 C29.24607422 19.39367187 29.89253906 18.4475 30.55859375 17.47265625 C31.84430089 15.58678254 33.12699777 13.698852 34.40625 11.80859375 C34.97480713 10.97634277 35.54336426 10.1440918 36.12915039 9.28662109 C37.63924165 7.05866271 37.63924165 7.05866271 38.49609375 4.09765625 C41.52762939 1.17691047 43.66492444 0.7275598 47.8125 0.76953125 C48.82376953 0.7746875 49.83503906 0.77984375 50.87695312 0.78515625 C52.45186523 0.81609375 52.45186523 0.81609375 54.05859375 0.84765625 C55.11240234 0.8528125 56.16621094 0.85796875 57.25195312 0.86328125 C65.03126286 0.94271262 65.03126286 0.94271262 68.49609375 2.09765625 C69.59268311 5.38742433 69.29562513 6.81069392 68.49609375 10.09765625 C65.61344226 11.05854008 63.81947104 11.21436566 60.828125 11.1953125 C59.93544922 11.19208984 59.04277344 11.18886719 58.12304688 11.18554688 C56.72989258 11.17297852 56.72989258 11.17297852 55.30859375 11.16015625 C53.89803711 11.15338867 53.89803711 11.15338867 52.45898438 11.14648438 C50.13795663 11.13470251 47.81705731 11.11825183 45.49609375 11.09765625 C45.22369873 11.82960205 44.95130371 12.56154785 44.6706543 13.31567383 C43.54857006 15.9733645 42.27997838 18.20011325 40.703125 20.609375 C40.15849609 21.4456543 39.61386719 22.28193359 39.05273438 23.14355469 C38.47716797 24.0152832 37.90160156 24.88701172 37.30859375 25.78515625 C36.72142578 26.6762207 36.13425781 27.56728516 35.52929688 28.48535156 C34.37140587 30.23885759 33.21147662 31.99101975 32.04931641 33.74169922 C30.76308339 35.6926814 29.5024648 37.65524441 28.2578125 39.6328125 C27.67644531 40.52871094 27.09507813 41.42460937 26.49609375 42.34765625 C26.02171875 43.0953125 25.54734375 43.84296875 25.05859375 44.61328125 C23.49609375 46.09765625 23.49609375 46.09765625 21.18359375 46.76953125 C13.56046109 44.86374809 8.18698347 32.92810536 4.12109375 26.78515625 C3.37791548 25.67752543 2.63442801 24.57010201 1.890625 23.46289062 C0.84841797 21.89571289 0.84841797 21.89571289 -0.21484375 20.296875 C-0.84696777 19.34643311 -1.4790918 18.39599121 -2.13037109 17.41674805 C-3.50390625 15.09765625 -3.50390625 15.09765625 -3.50390625 13.09765625 C-4.16390625 13.09765625 -4.82390625 13.09765625 -5.50390625 13.09765625 C-7.15390625 9.79765625 -8.80390625 6.49765625 -10.50390625 3.09765625 C-9.51390625 3.09765625 -8.52390625 3.09765625 -7.50390625 3.09765625 C-0.52934835 0.02064541 -0.52934835 0.02064541 0 0 Z " fill="#DEDEDE" transform="translate(86.50390625,114.90234375)"/>
<path d="M0 0 C1.01126953 0.00515625 2.02253906 0.0103125 3.06445312 0.015625 C4.63936523 0.0465625 4.63936523 0.0465625 6.24609375 0.078125 C7.29990234 0.08328125 8.35371094 0.0884375 9.43945312 0.09375 C17.21876286 0.17318137 17.21876286 0.17318137 20.68359375 1.328125 C21.78018311 4.61789308 21.48312513 6.04116267 20.68359375 9.328125 C17.80094226 10.28900883 16.00697104 10.44483441 13.015625 10.42578125 C12.12294922 10.42255859 11.23027344 10.41933594 10.31054688 10.41601562 C8.91739258 10.40344727 8.91739258 10.40344727 7.49609375 10.390625 C6.55572266 10.38611328 5.61535156 10.38160156 4.64648438 10.37695312 C2.32545663 10.36517126 0.00455731 10.34872058 -2.31640625 10.328125 C-2.56132812 11.02292969 -2.80625 11.71773437 -3.05859375 12.43359375 C-4.5189065 15.79412714 -6.37922403 18.61387367 -8.44140625 21.640625 C-9.16585937 22.70925781 -9.8903125 23.77789062 -10.63671875 24.87890625 C-11.46816406 26.09126953 -11.46816406 26.09126953 -12.31640625 27.328125 C-13.44140625 23.578125 -13.44140625 23.578125 -12.31640625 21.328125 C-11.65640625 21.328125 -10.99640625 21.328125 -10.31640625 21.328125 C-10.97640625 19.348125 -11.63640625 17.368125 -12.31640625 15.328125 C-13.30640625 15.328125 -14.29640625 15.328125 -15.31640625 15.328125 C-12.45408708 7.45674727 -9.36466993 -0.09476592 0 0 Z " fill="#D6D6D6" transform="translate(134.31640625,115.671875)"/>
<path d="M0 0 C1.084021 0.00523682 2.16804199 0.01047363 3.28491211 0.01586914 C5.03964844 0.02070312 5.03964844 0.02070312 6.82983398 0.02563477 C8.67738281 0.03820312 8.67738281 0.03820312 10.56225586 0.05102539 C12.41560547 0.05779297 12.41560547 0.05779297 14.30639648 0.06469727 C17.37089703 0.07652931 20.43530307 0.09301366 23.49975586 0.11352539 C23.82975586 2.42352539 24.15975586 4.73352539 24.49975586 7.11352539 C19.74975586 10.11352539 19.74975586 10.11352539 17.49975586 10.11352539 C17.49975586 9.45352539 17.49975586 8.79352539 17.49975586 8.11352539 C10.68823757 8.35592818 5.81920019 8.65669365 0.49975586 13.11352539 C0.16975586 12.45352539 -0.16024414 11.79352539 -0.50024414 11.11352539 C-1.16024414 11.11352539 -1.82024414 11.11352539 -2.50024414 11.11352539 C-4.25024414 8.92602539 -4.25024414 8.92602539 -5.50024414 6.11352539 C-3.88097866 0.17621864 -3.88097866 0.17621864 0 0 Z " fill="#EFEFEF" transform="translate(77.500244140625,106.886474609375)"/>
<path d="M0 0 C1.51400391 0.01740234 1.51400391 0.01740234 3.05859375 0.03515625 C4.07050781 0.04417969 5.08242187 0.05320312 6.125 0.0625 C7.29869141 0.07990234 7.29869141 0.07990234 8.49609375 0.09765625 C8.49609375 0.42765625 8.49609375 0.75765625 8.49609375 1.09765625 C1.74609375 2.22265625 1.74609375 2.22265625 -0.50390625 1.09765625 C0.22957031 2.1340625 0.96304688 3.17046875 1.71875 4.23828125 C2.66602819 5.60761408 3.61260659 6.97743121 4.55859375 8.34765625 C5.04392578 9.02957031 5.52925781 9.71148437 6.02929688 10.4140625 C6.48369141 11.07792969 6.93808594 11.74179688 7.40625 12.42578125 C7.83043213 13.03325195 8.25461426 13.64072266 8.69165039 14.26660156 C9.73007188 16.63023166 9.31891743 17.69707496 8.49609375 20.09765625 C8.15548564 21.76285144 7.82050979 23.42923091 7.49609375 25.09765625 C4.30341664 24.78763479 2.88269742 24.5261909 0.6953125 22.1015625 C0.19644531 21.29589844 -0.30242187 20.49023438 -0.81640625 19.66015625 C-1.32816406 18.85707031 -1.83992188 18.05398437 -2.3671875 17.2265625 C-3.50390625 15.09765625 -3.50390625 15.09765625 -3.50390625 13.09765625 C-4.16390625 13.09765625 -4.82390625 13.09765625 -5.50390625 13.09765625 C-7.15390625 9.79765625 -8.80390625 6.49765625 -10.50390625 3.09765625 C-9.51390625 3.09765625 -8.52390625 3.09765625 -7.50390625 3.09765625 C-0.52934835 0.02064541 -0.52934835 0.02064541 0 0 Z " fill="#D7D7D7" transform="translate(86.50390625,114.90234375)"/>
<path d="M0 0 C0.66 0.99 1.32 1.98 2 3 C1.566875 3.8353125 1.566875 3.8353125 1.125 4.6875 C-0.0413253 7.08494645 -1.0339881 9.51596939 -2 12 C-0.68 12.99 0.64 13.98 2 15 C-1.3203125 19.78515625 -1.3203125 19.78515625 -3 21 C-5.93359375 20.98828125 -5.93359375 20.98828125 -9 20 C-11.15234375 17.8203125 -11.15234375 17.8203125 -12.9375 15.125 C-13.54464844 14.24070312 -14.15179688 13.35640625 -14.77734375 12.4453125 C-15.18082031 11.63835937 -15.58429688 10.83140625 -16 10 C-15 7 -15 7 -12.9375 5.8125 C-12.298125 5.544375 -11.65875 5.27625 -11 5 C-11 3.68 -11 2.36 -11 1 C-10.34 1 -9.68 1 -9 1 C-7.95107762 2.63631892 -6.95093297 4.30485863 -6 6 C-5.67 6.33 -5.34 6.66 -5 7 C-2.21366246 5.60683123 -2.06507306 3.84019484 -1 1 C-0.67 0.67 -0.34 0.34 0 0 Z M-6 12 C-5.67 12.99 -5.34 13.98 -5 15 C-5 14.01 -5 13.02 -5 12 C-5.33 12 -5.66 12 -6 12 Z " fill="#E0E0E0" transform="translate(112,109)"/>
<path d="M0 0 C1.51400391 0.01740234 1.51400391 0.01740234 3.05859375 0.03515625 C4.07050781 0.04417969 5.08242187 0.05320312 6.125 0.0625 C7.29869141 0.07990234 7.29869141 0.07990234 8.49609375 0.09765625 C8.49609375 0.42765625 8.49609375 0.75765625 8.49609375 1.09765625 C1.74609375 2.22265625 1.74609375 2.22265625 -0.50390625 1.09765625 C-1.57915819 3.74994437 -2.59846776 6.38134079 -3.50390625 9.09765625 C-3.17390625 9.42765625 -2.84390625 9.75765625 -2.50390625 10.09765625 C-2.46326793 11.7638274 -2.46118525 13.4315372 -2.50390625 15.09765625 C-2.83390625 14.43765625 -3.16390625 13.77765625 -3.50390625 13.09765625 C-4.16390625 13.09765625 -4.82390625 13.09765625 -5.50390625 13.09765625 C-7.15390625 9.79765625 -8.80390625 6.49765625 -10.50390625 3.09765625 C-9.51390625 3.09765625 -8.52390625 3.09765625 -7.50390625 3.09765625 C-0.52934835 0.02064541 -0.52934835 0.02064541 0 0 Z " fill="#BEBEBE" transform="translate(86.50390625,114.90234375)"/>
<path d="M0 0 C0.99 0.33 1.98 0.66 3 1 C3.33 2.98 3.66 4.96 4 7 C3.34 7 2.68 7 2 7 C1.67 7.99 1.34 8.98 1 10 C-0.98 10.33 -2.96 10.66 -5 11 C-5.75 9.375 -5.75 9.375 -6 7 C-2.82191781 1.4109589 -2.82191781 1.4109589 0 0 Z " fill="#EAEAEA" transform="translate(120,130)"/>
<path d="M0 0 C2.64251362 1.95316224 3.04384183 3.17223574 3.875 6.4375 C4 10 4 10 2.5625 12.4375 C2.046875 12.953125 1.53125 13.46875 1 14 C-1.475 13.01 -1.475 13.01 -4 12 C-3.79503906 11.46890625 -3.59007813 10.9378125 -3.37890625 10.390625 C-3.10949219 9.68421875 -2.84007813 8.9778125 -2.5625 8.25 C-2.29566406 7.55390625 -2.02882813 6.8578125 -1.75390625 6.140625 C-1.03853307 4.10940997 -0.48634348 2.0964709 0 0 Z M-7 12 C-6.34 12.66 -5.68 13.32 -5 14 C-5.99 14.495 -5.99 14.495 -7 15 C-7 14.01 -7 13.02 -7 12 Z " fill="#F3F3F3" transform="translate(113,109)"/>
<path d="M0 0 C2.49361571 1.20381448 4.68143083 2.45428722 7 4 C6.50168276 7.68754757 5.89932357 9.60490662 3 12 C2.67 9.69 2.34 7.38 2 5 C1.01 5 0.02 5 -1 5 C-1.28875 5.639375 -1.5775 6.27875 -1.875 6.9375 C-3 9 -3 9 -5 10 C-4.38545304 6.00544473 -2.29353263 3.25533664 0 0 Z " fill="#DCDCDC" transform="translate(172,111)"/>
<path d="M0 0 C4 1 4 1 5 2 C5.66 2 6.32 2 7 2 C7.25 7.625 7.25 7.625 5 11 C3.35 11 1.7 11 0 11 C0 7.37 0 3.74 0 0 Z " fill="#EEEEEE" transform="translate(106,149)"/>
<path d="M0 0 C1.66666667 0 3.33333333 0 5 0 C5 0.66 5 1.32 5 2 C6.32 2.66 7.64 3.32 9 4 C7.35 6.64 5.7 9.28 4 12 C3.34 10.68 2.68 9.36 2 8 C1.443125 7.154375 0.88625 6.30875 0.3125 5.4375 C-0.3371875 4.2309375 -0.3371875 4.2309375 -1 3 C-0.67 2.01 -0.34 1.02 0 0 Z " fill="#DDDDDD" transform="translate(114,106)"/>
<path d="M0 0 C1.4540625 0.0309375 1.4540625 0.0309375 2.9375 0.0625 C2.9375 2.90217231 2.53482819 5.29985711 1.9375 8.0625 C0.2875 7.7325 -1.3625 7.4025 -3.0625 7.0625 C-3.44383299 5.0710944 -3.77575582 3.06970923 -4.0625 1.0625 C-3.0625 0.0625 -3.0625 0.0625 0 0 Z " fill="#F1F1F1" transform="translate(92.0625,131.9375)"/>
<path d="M0 0 C1.65 1.65 3.3 3.3 5 5 C4.67 5.66 4.34 6.32 4 7 C2.68 7 1.36 7 0 7 C-0.66 8.65 -1.32 10.3 -2 12 C-3.5 10.625 -3.5 10.625 -5 9 C-5 7 -5 7 -3 5 C-1.97695052 3.34738161 -0.97383946 1.68208635 0 0 Z " fill="#CECECE" transform="translate(96,133)"/>
<path d="M0 0 C2.475 0.99 2.475 0.99 5 2 C1.67692308 7.78461538 1.67692308 7.78461538 -1.75 8.875 C-2.4925 8.91625 -3.235 8.9575 -4 9 C-3.34 8.67 -2.68 8.34 -2 8 C-2.226875 7.236875 -2.45375 6.47375 -2.6875 5.6875 C-2.790625 4.800625 -2.89375 3.91375 -3 3 C-1.5625 1.1875 -1.5625 1.1875 0 0 Z " fill="#D3D3D3" transform="translate(109,121)"/>
<path d="M0 0 C1.98 0.66 3.96 1.32 6 2 C5.1875 4.9375 5.1875 4.9375 4 8 C3.01 8.33 2.02 8.66 1 9 C-1.125 2.25 -1.125 2.25 0 0 Z " fill="#F9F9F9" transform="translate(83,121)"/>
<path d="M0 0 C0.66 1.32 1.32 2.64 2 4 C0.35 6.31 -1.3 8.62 -3 11 C-4 7 -4 7 -3 5 C-2.34 5 -1.68 5 -1 5 C-0.67 3.35 -0.34 1.7 0 0 Z " fill="#B6B6B6" transform="translate(125,132)"/>
<path d="M0 0 C0.66 0.99 1.32 1.98 2 3 C0.02 5.97 0.02 5.97 -2 9 C-2.99 8.01 -3.98 7.02 -5 6 C-4.34 6 -3.68 6 -3 6 C-2.690625 5.195625 -2.38125 4.39125 -2.0625 3.5625 C-1 1 -1 1 0 0 Z " fill="#BBBBBB" transform="translate(112,109)"/>
<path d="M0 0 C0.66 0.99 1.32 1.98 2 3 C-0.31 4.98 -2.62 6.96 -5 9 C-3.44455189 5.88910379 -1.80979645 2.96148509 0 0 Z " fill="#A1A1A1" transform="translate(131,143)"/>
<path d="M0 0 C0 3 0 3 -2.5 5.6875 C-3.325 6.450625 -4.15 7.21375 -5 8 C-5 5 -5 5 -2.5 2.3125 C-1.675 1.549375 -0.85 0.78625 0 0 Z " fill="#C1C1C1" transform="translate(125,123)"/>
<path d="M0 0 C0.99 0.33 1.98 0.66 3 1 C2.01 1.495 2.01 1.495 1 2 C0.67 2.66 0.34 3.32 0 4 C-1 6 -1 6 -3 7 C-2.38722388 4.03824877 -1.74627478 2.61941217 0 0 Z " fill="#BBBBBB" transform="translate(170,114)"/>
<path d="M0 0 C0.99 0 1.98 0 3 0 C3 0.66 3 1.32 3 2 C2.01 2 1.02 2 0 2 C0 1.34 0 0.68 0 0 Z " fill="#010101" transform="translate(71,106)"/>
<path d="" fill="#1C1C1C" transform="translate(0,0)"/>
</svg>
